<?xml version="1.0" standalone="no"?>
<!DOCTYPE svg PUBLIC "-//W3C//DTD SVG 20010904//EN"
 "http://www.w3.org/TR/2001/REC-SVG-20010904/DTD/svg10.dtd">
<svg version="1.0" xmlns="http://www.w3.org/2000/svg"
 width="248.000000pt" height="248.000000pt" viewBox="0 0 248.000000 248.000000"
 preserveAspectRatio="xMidYMid meet">
<metadata>
Created by potrace 1.14, written by Peter Selinger 2001-2017
</metadata>
<g transform="translate(0.000000,248.000000) scale(0.100000,-0.100000)"
fill="#000000" stroke="none">
<path d="M10 1240 l0 -1240 1230 0 1230 0 0 125 0 125 -955 0 -955 0 0 1115 0
1115 -275 0 -275 0 0 -1240z"/>
<path d="M770 2355 l0 -125 270 0 270 0 0 -366 0 -366 -270 -384 -270 -385 0
-124 0 -125 840 0 840 0 0 125 0 125 -290 0 -290 0 0 335 0 335 290 412 290
413 0 128 0 127 -840 0 -840 0 0 -125z"/>
</g>
</svg>
