<?xml version="1.0" standalone="no"?>
<!DOCTYPE svg PUBLIC "-//W3C//DTD SVG 20010904//EN"
 "http://www.w3.org/TR/2001/REC-SVG-20010904/DTD/svg10.dtd">
<svg version="1.0" xmlns="http://www.w3.org/2000/svg"
 width="314.000000pt" height="314.000000pt" viewBox="0 0 314.000000 314.000000"
 preserveAspectRatio="xMidYMid meet">
<metadata>
Created by potrace 1.14, written by Peter Selinger 2001-2017
</metadata>
<g transform="translate(0.000000,314.000000) scale(0.100000,-0.100000)"
fill="#000000" stroke="none">
<path d="M0 1570 l0 -1570 1570 0 1570 0 0 1570 0 1570 -1570 0 -1570 0 0
-1570z m1610 1346 c0 -69 -2 -75 -22 -79 -18 -3 -16 -5 8 -6 130 -5 295 -111
368 -235 64 -110 82 -296 48 -486 l-18 -95 -147 -3 -147 -3 0 68 c-1 177 -32
319 -86 390 -38 51 -124 87 -187 79 -61 -7 -125 -42 -153 -84 -44 -65 -41
-201 7 -294 30 -59 100 -164 161 -240 154 -194 391 -502 433 -563 113 -165
165 -320 165 -495 0 -86 -5 -120 -24 -176 -72 -208 -179 -314 -368 -364 -40
-10 -65 -19 -55 -19 15 -1 17 -12 17 -86 l0 -85 -135 0 -135 0 0 83 0 83 -75
13 c-195 32 -348 171 -389 351 -21 89 -20 261 0 373 l16 87 149 0 149 0 0 -78
c0 -202 35 -330 111 -405 l49 -47 97 0 c88 0 99 2 130 26 51 38 73 91 73 171
0 168 -64 289 -313 601 -319 398 -407 535 -443 687 -10 42 -17 114 -18 180 0
123 13 182 70 301 58 124 194 227 339 257 l60 12 -3 78 -3 77 136 0 135 0 0
-74z"/>
<path d="M1370 2819 c-123 -9 -236 -56 -319 -133 -36 -33 -91 -104 -91 -117 0
-4 125 -9 278 -11 l277 -3 46 -27 c96 -56 138 -161 146 -365 l6 -133 133 0
c153 0 136 -14 159 130 19 118 19 186 0 274 -22 103 -66 189 -129 251 -114
111 -266 151 -506 134z"/>
<path d="M890 2272 c0 -135 22 -227 83 -348 51 -101 87 -152 242 -352 l110
-141 3 314 2 314 -36 58 c-46 71 -64 129 -64 205 l0 58 -170 0 -170 0 0 -108z"/>
<path d="M906 1111 c-3 -4 -12 -50 -21 -102 -46 -286 18 -490 189 -601 103
-66 175 -83 361 -83 148 0 166 2 238 28 82 29 144 63 191 106 32 29 86 100 86
113 0 4 -123 8 -272 8 -167 0 -289 4 -313 11 -26 7 -57 28 -87 59 -67 70 -88
143 -95 328 l-6 142 -133 0 c-73 0 -135 -4 -138 -9z"/>
</g>
</svg>
