<svg width="120" height="50" viewBox="0 0 120 50" fill="none" xmlns="http://www.w3.org/2000/svg">
<path d="M13.4294 34.6474H2V18.7302H6.38826V32.6246H13.4294V34.6474Z" fill="#00D715"/>
<path d="M17.1275 28.59C17.5843 28.6932 18.0412 28.7742 18.4981 28.8332C18.955 28.8921 19.4156 28.9216 19.8798 28.9216C20.3662 28.9216 20.8157 28.8774 21.2283 28.789C21.6484 28.6932 22.0095 28.5384 22.3116 28.3247C22.6211 28.1037 22.8643 27.8126 23.0411 27.4515C23.218 27.0904 23.3064 26.6409 23.3064 26.103C23.3064 25.6682 23.2475 25.2703 23.1296 24.9092C23.0116 24.5481 22.8348 24.2386 22.599 23.9807C22.3705 23.7228 22.0868 23.5238 21.7479 23.3838C21.4089 23.2364 21.0146 23.1627 20.5651 23.1627C20.1451 23.1627 19.7656 23.2401 19.4266 23.3948C19.095 23.5496 18.8002 23.7596 18.5423 24.0249C18.2918 24.2828 18.0744 24.5849 17.8902 24.9313C17.7133 25.2776 17.5659 25.6387 17.448 26.0145C17.3301 26.3903 17.2454 26.7699 17.1938 27.153C17.1422 27.5362 17.1164 27.8973 17.1164 28.2363C17.1164 28.2952 17.1164 28.3542 17.1164 28.4132C17.1164 28.4721 17.1201 28.5311 17.1275 28.59ZM26.3351 26.0698C26.3351 26.593 26.2503 27.0609 26.0808 27.4736C25.9114 27.8789 25.6792 28.2363 25.3845 28.5458C25.0971 28.8553 24.7618 29.1169 24.3786 29.3306C23.9954 29.5443 23.5864 29.7212 23.1517 29.8612C22.7169 29.9938 22.2674 30.0896 21.8031 30.1486C21.3462 30.2075 20.9004 30.237 20.4656 30.237C19.913 30.237 19.3677 30.2001 18.8297 30.1265C18.2918 30.0454 17.7612 29.9201 17.238 29.7506C17.3191 30.237 17.448 30.7012 17.6249 31.1434C17.8017 31.5782 18.0375 31.9613 18.3323 32.293C18.6271 32.6172 18.9881 32.8751 19.4156 33.0667C19.8503 33.2583 20.3625 33.3541 20.952 33.3541C21.3426 33.3541 21.7147 33.2951 22.0684 33.1772C22.4221 33.0593 22.7464 32.8935 23.0411 32.6798C23.3359 32.4661 23.5938 32.2119 23.8149 31.9171C24.0433 31.6224 24.2275 31.2944 24.3675 30.9334L25.9814 31.5303C25.7382 32.1124 25.4029 32.6172 24.9755 33.0446C24.5555 33.4646 24.0765 33.8147 23.5385 34.0947C23.008 34.3673 22.4405 34.57 21.8363 34.7026C21.2394 34.8353 20.6462 34.9016 20.0567 34.9016C19.0839 34.9016 18.1849 34.7395 17.3596 34.4152C16.5343 34.0836 15.8231 33.6231 15.2263 33.0335C14.6294 32.444 14.1614 31.7403 13.8224 30.9223C13.4835 30.1043 13.314 29.209 13.314 28.2363C13.314 27.2636 13.4835 26.3682 13.8224 25.5503C14.1614 24.7323 14.6294 24.0286 15.2263 23.439C15.8231 22.8495 16.5343 22.3926 17.3596 22.0684C18.1849 21.7368 19.0839 21.571 20.0567 21.571C20.5283 21.571 21.0109 21.6042 21.5047 21.6705C21.9984 21.7368 22.4774 21.8437 22.9416 21.991C23.4059 22.131 23.8443 22.3153 24.257 22.5437C24.6697 22.7721 25.0271 23.0559 25.3292 23.3948C25.6387 23.7264 25.8819 24.1133 26.0587 24.5555C26.243 24.9976 26.3351 25.5024 26.3351 26.0698Z" fill="#00D715"/>
<path d="M32.7966 34.6474H29.0494V23.3617H26.7281V21.8805H29.0494V17.1827H32.7966V21.8805H36.6653V23.3617H32.7966V34.6474Z" fill="#00D715"/>
<path d="M41.1924 20.4546C41.1924 20.7936 41.1482 21.1399 41.0598 21.4936C40.9713 21.8473 40.8461 22.19 40.6839 22.5216C40.5292 22.8532 40.345 23.1701 40.1313 23.4722C39.9176 23.767 39.6854 24.0286 39.4349 24.257L37.8432 23.4169C37.9979 23.299 38.1527 23.1443 38.3074 22.9527C38.4695 22.7611 38.5653 22.5695 38.5948 22.3779C38.3811 22.3116 38.1858 22.2158 38.009 22.0905C37.8395 21.9652 37.6921 21.8179 37.5668 21.6484C37.4416 21.4789 37.3421 21.2947 37.2684 21.0957C37.2021 20.8894 37.1689 20.6757 37.1689 20.4546C37.1689 20.1819 37.2205 19.924 37.3236 19.6808C37.4342 19.4303 37.5779 19.2166 37.7547 19.0397C37.939 18.8555 38.1527 18.7118 38.3958 18.6086C38.639 18.4981 38.9006 18.4428 39.1806 18.4428C39.4607 18.4428 39.7223 18.4944 39.9655 18.5976C40.2086 18.7008 40.4223 18.8445 40.6066 19.0287C40.7908 19.2129 40.9345 19.4266 41.0376 19.6698C41.1408 19.913 41.1924 20.1746 41.1924 20.4546Z" fill="#00D715"/>
<path d="M52.2497 30.5686C52.2497 31.1286 52.1686 31.6261 52.0065 32.0608C51.8444 32.4956 51.6233 32.8751 51.3433 33.1993C51.0633 33.5162 50.7317 33.7852 50.3485 34.0063C49.9653 34.22 49.5526 34.3931 49.1105 34.5258C48.6757 34.6584 48.2188 34.7542 47.7398 34.8132C47.2609 34.8721 46.7855 34.9016 46.3139 34.9016C45.6802 34.9016 45.1201 34.8611 44.6338 34.78C44.1474 34.6989 43.6832 34.57 43.241 34.3931C42.7989 34.2089 42.3568 33.9731 41.9146 33.6857C41.4798 33.3983 40.9935 33.0483 40.4555 32.6356L42.6331 30.856C42.8321 31.2318 43.0937 31.5745 43.4179 31.884C43.7495 32.1861 44.0922 32.4477 44.4459 32.6688C44.7996 32.8898 45.1423 33.0593 45.4739 33.1772C45.8055 33.2951 46.0744 33.3541 46.2808 33.3541C46.4503 33.3541 46.6419 33.3504 46.8556 33.343C47.0693 33.3283 47.2866 33.3062 47.5077 33.2767C47.7288 33.2399 47.9462 33.1883 48.1599 33.122C48.3736 33.0556 48.5615 32.9672 48.7236 32.8567C48.8931 32.7388 49.0257 32.5951 49.1215 32.4256C49.2247 32.2487 49.2763 32.0387 49.2763 31.7955C49.2763 31.545 49.21 31.3276 49.0773 31.1434C48.952 30.9518 48.7862 30.786 48.5799 30.646C48.3736 30.506 48.1378 30.3881 47.8725 30.2923C47.6072 30.1965 47.3382 30.1117 47.0656 30.038C46.8003 29.9643 46.5424 29.9017 46.2918 29.8501C46.0413 29.7912 45.8239 29.7359 45.6397 29.6843C45.3007 29.5885 44.9433 29.4927 44.5675 29.3969C44.1916 29.2938 43.8195 29.1795 43.4511 29.0543C43.0826 28.9216 42.7289 28.7669 42.3899 28.59C42.0583 28.4132 41.7635 28.2031 41.5056 27.96C41.2551 27.7094 41.0524 27.4183 40.8977 27.0867C40.7503 26.7477 40.6766 26.3535 40.6766 25.904C40.6766 25.0787 40.8387 24.3897 41.163 23.837C41.4946 23.2769 41.9294 22.8311 42.4673 22.4995C43.0052 22.1605 43.6169 21.921 44.3022 21.781C44.9875 21.641 45.6839 21.571 46.3913 21.571C46.8777 21.571 47.3898 21.6226 47.9278 21.7257C48.4657 21.8215 48.9889 21.9689 49.4974 22.1679C50.0058 22.3595 50.4811 22.5953 50.9233 22.8753C51.3654 23.1553 51.7339 23.4759 52.0286 23.837L49.8511 25.6277C49.689 25.1855 49.4753 24.806 49.21 24.4891C48.9521 24.1723 48.6683 23.9144 48.3588 23.7154C48.0567 23.5091 47.7435 23.358 47.4193 23.2622C47.1024 23.1664 46.8077 23.1185 46.535 23.1185C46.2697 23.1185 45.9713 23.1295 45.6397 23.1517C45.3081 23.1738 44.9949 23.2364 44.7001 23.3396C44.4127 23.4427 44.1659 23.6012 43.9595 23.8149C43.7606 24.0212 43.6611 24.3086 43.6611 24.677C43.6611 24.9423 43.72 25.1708 43.8379 25.3624C43.9632 25.5466 44.1253 25.7087 44.3243 25.8487C44.5233 25.9814 44.748 26.0956 44.9986 26.1914C45.2565 26.2798 45.5181 26.3609 45.7834 26.4346C46.0486 26.5009 46.3066 26.5598 46.5571 26.6114C46.8077 26.663 47.0324 26.7183 47.2314 26.7772C47.5704 26.873 47.9277 26.9725 48.3036 27.0757C48.6868 27.1715 49.0626 27.2857 49.431 27.4183C49.7995 27.5436 50.1532 27.6947 50.4922 27.8715C50.8385 28.041 51.1407 28.251 51.3986 28.5016C51.6565 28.7521 51.8628 29.0469 52.0176 29.3859C52.1723 29.7175 52.2497 30.1117 52.2497 30.5686Z" fill="#00D715"/>
<path d="M65.5261 34.6474H61.1378V20.7641H56.8048V18.7302H69.8591V20.7641H65.5261V34.6474Z" fill="#00D715"/>
<path d="M82.7869 34.6474H79.0508V33.122C78.6086 33.7262 78.0744 34.1757 77.448 34.4705C76.829 34.7579 76.1474 34.9016 75.4031 34.9016C74.4304 34.9016 73.5608 34.7284 72.7945 34.3821C72.0281 34.0357 71.3796 33.5641 70.849 32.9672C70.3185 32.363 69.9132 31.6555 69.6331 30.8449C69.3531 30.0343 69.2131 29.1648 69.2131 28.2363C69.2131 27.3078 69.3531 26.4382 69.6331 25.6277C69.9132 24.8171 70.3185 24.1133 70.849 23.5164C71.3796 22.9122 72.0281 22.4369 72.7945 22.0905C73.5608 21.7442 74.4304 21.571 75.4031 21.571C75.8968 21.571 76.3648 21.6447 76.8069 21.7921C77.2564 21.9394 77.6654 22.1495 78.0338 22.4221C78.4097 22.6874 78.7376 23.0116 79.0176 23.3948C79.305 23.7707 79.5298 24.1907 79.6919 24.6549L81.3499 21.8805H82.7869V34.6474ZM79.0287 28.2363C79.0287 27.9047 79.0102 27.5547 78.9734 27.1862C78.9439 26.8178 78.8887 26.453 78.8076 26.0919C78.7265 25.7308 78.6123 25.3882 78.4649 25.0639C78.3249 24.7323 78.1407 24.4412 77.9123 24.1907C77.6912 23.9328 77.4222 23.7301 77.1054 23.5827C76.7885 23.4354 76.42 23.3617 76 23.3617C75.58 23.3617 75.2152 23.439 74.9057 23.5938C74.5962 23.7412 74.3309 23.9438 74.1098 24.2017C73.8888 24.4523 73.7045 24.7434 73.5572 25.075C73.4171 25.4066 73.3066 25.7529 73.2255 26.114C73.1445 26.4751 73.0855 26.8399 73.0487 27.2083C73.0192 27.5694 73.0045 27.9121 73.0045 28.2363C73.0045 28.5605 73.0192 28.9069 73.0487 29.2753C73.0855 29.6438 73.1445 30.0085 73.2255 30.3696C73.3066 30.7307 73.4171 31.0771 73.5572 31.4087C73.7045 31.7403 73.8888 32.035 74.1098 32.293C74.3309 32.5435 74.5962 32.7461 74.9057 32.9009C75.2152 33.0483 75.58 33.122 76 33.122C76.3832 33.122 76.7222 33.0446 77.0169 32.8898C77.3191 32.7277 77.5807 32.514 77.8017 32.2487C78.0302 31.9835 78.2218 31.6813 78.3765 31.3423C78.5313 31.0034 78.6565 30.6533 78.7523 30.2923C78.8481 29.9312 78.9181 29.5738 78.9624 29.2201C79.0066 28.859 79.0287 28.5311 79.0287 28.2363Z" fill="#00D715"/>
<path d="M88.972 34.6474H85.2359V16H86.6729L88.972 19.8798V34.6474Z" fill="#00D715"/>
<path d="M95.1461 34.6474H91.41V17.1827H95.1461V28.6453C95.7577 28.2031 96.3583 27.7168 96.9478 27.1862C97.5447 26.6556 98.1121 26.0993 98.6501 25.5171C99.188 24.9276 99.6854 24.327 100.142 23.7154C100.607 23.1038 101.012 22.4921 101.358 21.8805H103.901C103.385 22.75 102.773 23.6196 102.066 24.4891C101.358 25.3513 100.588 26.1766 99.7554 26.9651L103.945 34.6474H99.8218L96.8483 29.3195C96.2957 29.6954 95.7283 30.0417 95.1461 30.3586V34.6474Z" fill="#00D715"/>
<path d="M118 34.6474H104.658V32.6135H104.647L112.971 20.7641H104.658V18.7302H118V20.7641L109.677 32.6135H118V34.6474Z" fill="#00D715"/>
</svg>
